<svg  width="32" height="32" fill="#00ced1" fill-rule="nonzero" ><path d="M24.777 30.875l-3.357-3.357c-.117-.117-.276-.183-.442-.183l-1.802.003a8.38 8.38 0 0 1-2.934-.532l1.08-.725a1.95 1.95 0 0 0 .515-2.76 1.97 1.97 0 0 0-1.614-.837h-.03l2.5-2.5a1.94 1.94 0 0 0-.63-3.161c.173-.294.265-.63.265-.98a1.92 1.92 0 0 0-.567-1.37c-.367-.366-.852-.567-1.37-.567-.35 0-.686.093-.98.265a1.92 1.92 0 0 0-.422-.63c-.366-.366-.852-.567-1.37-.567a1.92 1.92 0 0 0-1.37.567l-.894.894a1.94 1.94 0 0 0-.395-.57c-.366-.366-.852-.567-1.37-.567s-1.004.202-1.37.567l-.396.396-1.6-1.602a1.2 1.2 0 0 1 1.605-1.78l1.56 1.56c.122.122.282.183.442.183a.62.62 0 0 0 .442-.183c.244-.244.244-.64 0-.884l-2.7-2.7A1.2 1.2 0 1 1 9.26 7.178l4.715 4.724c.122.122.282.183.442.183a.62.62 0 0 0 .442-.183c.244-.244.244-.64 0-.884l-3.584-3.593a1.2 1.2 0 0 1 1.78-1.605l1.313 1.313c.244.244.64.244.884 0s.244-.64 0-.884L13.94 4.936c-.955-.955-2.5-.955-3.465 0-.316.316-.526.697-.633 1.1a2.43 2.43 0 0 0-1.429-.46 2.43 2.43 0 0 0-1.732.718c-.86.86-.945 2.205-.257 3.162-.403.107-.785.318-1.1.633-.902.902-.952 2.336-.152 3.298-.394.1-.767.318-1.076.627-.955.955-.955 2.5 0 3.465l.28.28a7 7 0 0 0-1.626 4.515l.002 1.035-2.564 2.565c-.244.244-.244.64 0 .884.122.122.282.183.442.183a.62.62 0 0 0 .442-.183L3.82 24c.117-.117.183-.277.183-.443L4 22.272c-.002-1.553.602-3.014 1.7-4.112l3.4-3.4a.68.68 0 0 1 .486-.201.68.68 0 0 1 .687.687.68.68 0 0 1-.15.428l-.826.826c-.244.244-.244.64 0 .884.125.125.285.186.445.186a.62.62 0 0 0 .442-.183l2.945-2.95a.68.68 0 0 1 .486-.201.68.68 0 0 1 .486.201.69.69 0 0 1 .051.914l-3 3.006c-.244.244-.244.64 0 .884.122.122.282.183.442.183a.62.62 0 0 0 .442-.183l3.864-3.87a.68.68 0 0 1 .486-.201.68.68 0 0 1 .486.201.69.69 0 0 1 0 .972l-3.87 3.864c-.244.244-.244.64 0 .884s.64.244.884 0l3.006-3a.69.69 0 0 1 .914.051.69.69 0 0 1 0 .972l-4.22 4.22a.81.81 0 0 0-.065 1.084.81.81 0 0 0 1.068.195l1.275-.773a.72.72 0 0 1 .958.202.71.71 0 0 1-.188 1.005l-2.95 1.978a5.78 5.78 0 0 1-3.233.983l-2-.003c-.167 0-.326.066-.443.183L5.25 30.936c-.244.244-.244.64 0 .884.122.122.282.183.442.183a.62.62 0 0 0 .442-.183L8.7 29.256l1.744.003a7.04 7.04 0 0 0 3.939-1.195l.632-.424a9.62 9.62 0 0 0 4.159.952l1.555-.002 3.174 3.174c.122.122.282.183.442.183a.62.62 0 0 0 .442-.183c.244-.244.244-.64 0-.884zM6.522 15.564l-1.288 1.288-.258-.258a1.2 1.2 0 0 1 1.605-1.78l.345.345-.405.405zm25.295 8.272c-.116-.117-.277-.183-.442-.183s-.326.066-.442.183a.63.63 0 0 0-.183.442.63.63 0 0 0 .625.625.63.63 0 0 0 .625-.625.63.63 0 0 0-.183-.442zm-1.68-1.68l-1.493-1.493.004-2.527c.003-1.9-.558-3.757-1.62-5.342l-2.75-4.102a2.47 2.47 0 0 0-3.497-.653 2.5 2.5 0 0 0-.945 2.792L18.2 9.197c-.244-.244-.64-.244-.884 0s-.244.64 0 .884l3.5 3.5a.88.88 0 0 0 1.184.07c.36-.285.45-.774.213-1.167l-1.075-1.773c-.338-.557-.184-1.285.35-1.66a1.23 1.23 0 0 1 1.741.325l2.75 4.102a8.29 8.29 0 0 1 1.409 4.644l-.004 2.786a.63.63 0 0 0 .183.443l1.676 1.676c.122.122.282.183.442.183a.62.62 0 0 0 .442-.183c.244-.244.244-.64 0-.884zM16.73 7.728a.63.63 0 0 0-.44-.183.63.63 0 0 0-.626.625.63.63 0 0 0 .626.625.63.63 0 0 0 .625-.625.63.63 0 0 0-.184-.442zm5.8 9.7c.244-.244.244-.64 0-.884s-.64-.244-.884 0l-.273.273a3 3 0 0 0 0 4.233c.122.122.282.183.442.183a.62.62 0 0 0 .442-.183c.244-.244.244-.64 0-.884-.68-.68-.68-1.786 0-2.466l.273-.273zm7.3-14.052a2.13 2.13 0 0 0-1.12.32 2.15 2.15 0 0 0-1.122-.32c-1.196 0-2.17 1-2.17 2.208 0 .7.496 1.52 1.517 2.534a15.92 15.92 0 0 0 1.394 1.225.62.62 0 0 0 .38.128.63.63 0 0 0 .38-.128c.03-.022.707-.542 1.394-1.225C31.504 7.103 32 6.274 32 5.584c0-1.218-.973-2.208-2.17-2.208zM28.7 8.047c-1.044-.867-2.04-1.974-2.04-2.463 0-.53.412-.958.92-.958a.89.89 0 0 1 .662.294c.118.128.285.2.46.2a.63.63 0 0 0 .46-.2c.175-.2.4-.294.662-.294.507 0 .92.43.92.958 0 .488-.996 1.595-2.04 2.463zM4.412 0a2.13 2.13 0 0 0-1.12.32A2.15 2.15 0 0 0 2.17 0C.973 0 0 1 0 2.2c0 .7.496 1.52 1.517 2.534a15.94 15.94 0 0 0 1.394 1.225.62.62 0 0 0 .38.128.63.63 0 0 0 .38-.128c.03-.022.706-.542 1.394-1.225C6.084 3.728 6.58 2.9 6.58 2.2 6.58 1 5.608 0 4.412 0zM3.3 4.672C2.246 3.804 1.25 2.697 1.25 2.2c0-.53.412-.958.92-.958a.89.89 0 0 1 .662.294c.118.128.285.2.46.2a.63.63 0 0 0 .46-.2c.175-.2.4-.294.662-.294.507 0 .92.43.92.958 0 .487-.996 1.595-2.04 2.463z"/></svg>