<svg  width="26" height="32"><path d="M23.96 10.645h-2.13a1.6 1.6 0 0 0-.532.096V6.388A6.52 6.52 0 0 0 14.666.001h-4.013a6.32 6.32 0 0 0-6.387 6.248v4.493a1.6 1.6 0 0 0-.532-.096h-2.13c-.882 0-1.597.715-1.597 1.597s.715 1.597 1.597 1.597h.532v3.273c.003.837.68 1.514 1.517 1.517h.687a2.13 2.13 0 0 0 2.054 1.597h3.726v1.597a.53.53 0 0 0 .532.532h.532v1.597c.001.05-.036.093-.085.1l-4.407.734a2.66 2.66 0 0 0-2.171 2.102l-.213 1.064a2.13 2.13 0 0 0-.846 2.89 2.13 2.13 0 0 0 3.996-1.037 2.1 2.1 0 0 0-.043-.41l.442-1.772 3.3-.415v1.198a2.13 2.13 0 0 0 .189 3.005 2.13 2.13 0 0 0 3.005-3.005v-1.192l3.3.415.452 1.772c-.013.135-.013.27 0 .404a2.13 2.13 0 0 0 2.119 2.139 2.13 2.13 0 0 0 1.032-3.996l-.213-1.064a2.66 2.66 0 0 0-2.171-2.102l-4.407-.734c-.048-.008-.083-.048-.085-.096v-1.597h.532a.53.53 0 0 0 .532-.532v-1.597h3.726a2.13 2.13 0 0 0 2.054-1.597h.687c.837-.003 1.514-.68 1.517-1.517V13.84h.532c.882 0 1.597-.715 1.597-1.597s-.715-1.597-1.597-1.597zm-19.692 6.92h-.612c-.25 0-.452-.203-.452-.452V13.84h.532a1.6 1.6 0 0 0 .532-.096v3.82zm-.532-4.8h-2.13a.53.53 0 1 1 0-1.064h2.13a.53.53 0 1 1 0 1.064zM5.33 30.87c-.588 0-1.064-.477-1.064-1.064s.477-1.064 1.064-1.064 1.064.477 1.064 1.064S5.92 30.87 5.33 30.87zm7.45 0c-.588 0-1.064-.477-1.064-1.064s.477-1.064 1.064-1.064 1.064.477 1.064 1.064-.477 1.064-1.064 1.064zm8.516-1.064c0 .588-.477 1.064-1.064 1.064s-1.064-.477-1.064-1.064.477-1.064 1.064-1.064 1.064.477 1.064 1.064zm-2.603-3.976c.655.11 1.174.61 1.304 1.26l.117.585a2.13 2.13 0 0 0-1.208.468l-.27-1.128a.53.53 0 0 0-.452-.399l-4.258-.532a.53.53 0 0 0-.415.128.53.53 0 0 0-.197.399v1.14c-.348-.1-.717-.1-1.064 0v-1.14a.53.53 0 0 0-.596-.527l-4.258.532a.53.53 0 0 0-.452.399l-.287 1.14a2.13 2.13 0 0 0-1.208-.479l.117-.596c.13-.65.65-1.153 1.304-1.26l4.407-.734a1.16 1.16 0 0 0 .974-1.134v-1.597h1.064v1.597a1.16 1.16 0 0 0 .974 1.144l4.407.734zM14.38 21.3h-3.193v-1.064h3.193V21.3zm4.407-2.13H6.778c-.732.01-1.356-.53-1.448-1.256.094-.512.544-.88 1.064-.873H19.17c.52-.01.97.36 1.064.873-.092.726-.716 1.267-1.448 1.256zm1.448-2.895a2.08 2.08 0 0 0-1.064-.298H6.395a2.08 2.08 0 0 0-1.064.298V6.388c-.033-2.907 2.298-5.3 5.204-5.322h4.13c3.005-.062 5.494 2.318 5.567 5.322v9.878zm2.13.846c0 .25-.203.452-.452.452h-.612v-3.82a1.6 1.6 0 0 0 .532.096h.532v3.273zm1.597-4.338h-2.13a.53.53 0 1 1 0-1.064h2.13a.53.53 0 1 1 0 1.064z" fill="#333" fill-rule="nonzero"/></svg>