<svg  width="25" height="25" fill="#00ced1" fill-rule="nonzero" ><path d="M25 4.77c-.025-2.122-1.11-3.3-3.058-3.3-.754 0-1.48.175-1.954.322l.048-1.43v-.37H4.965v.37l.05 1.43c-.475-.146-1.2-.322-1.956-.322-1.947 0-3.033 1.17-3.058 3.3-.025 2.087.452 3.946 1.415 5.523.946 1.55 2.155 2.482 3.002 2.992 1.358.817 2.714.988 3.614.988l.635-.03.038-.004a5.72 5.72 0 0 0 1.404 1.122c.37.205.626.564.714.975-.498.155-.86.62-.86 1.168 0 .56.38 1.034.894 1.178v1.558h-2.01v1.626H6.866V25h11.27v-3.133h-1.982V20.24h-2.01V18.68c.515-.144.894-.617.894-1.178 0-.548-.362-1.013-.86-1.168a1.46 1.46 0 0 1 .714-.975c.5-.278.972-.655 1.405-1.122a6.15 6.15 0 0 0 .672.035c.9 0 2.256-.172 3.614-.988.848-.5 2.056-1.443 3.002-2.992.963-1.577 1.44-3.435 1.415-5.523zM19.287.744l-.017.506H5.732L5.714.744h13.573zm.505 3.41c.503-.167 1.155-.336 1.74-.336.5 0 .842.12 1.048.356.236.27.313.727.226 1.354-.36 2.614-1.492 4.654-3.19 5.744-.592.38-1.23.537-1.763.593 1.13-2.375 1.677-5.354 1.94-7.71zM5.59 6.74c.365 1.96.87 3.64 1.5 5l.06.125c-.534-.056-1.17-.213-1.762-.593-1.7-1.09-2.832-3.13-3.19-5.744-.086-.627-.01-1.083.226-1.354.206-.236.558-.356 1.048-.356.585 0 1.237.17 1.74.337l.38 2.586zm2.44 6.792c-.805 0-2.02-.153-3.23-.882C3.562 11.903.686 9.644.743 4.78c.02-1.72.777-2.557 2.315-2.557.822 0 1.634.248 2.006.38l.062.748c-.505-.148-1.1-.275-1.657-.275-.714 0-1.255.205-1.608.6-.384.44-.52 1.094-.402 1.943.2 1.455.618 2.74 1.242 3.823.596 1.032 1.364 1.855 2.284 2.446.898.577 1.87.722 2.563.736l.122.21.036.06.112.18.043.066.077.117.076.11.1.156h-.092zm9.36 9.077v1.648H7.608v-1.648h9.784zm-3.25-1.626H15.4v.883H9.59v-.883h4.552zM11.6 20.24v-1.513h1.8v1.513h-1.8zm2.695-2.736a.48.48 0 0 1-.481.481h-2.628a.48.48 0 1 1 0-.961h2.628a.48.48 0 0 1 .481.481zm1.857-4.244l-.012.016-.1.14-.027.033-.123.145c-.42.48-.872.853-1.35 1.12-.588.327-.99.91-1.1 1.57H11.57c-.1-.66-.5-1.242-1.1-1.57a5.03 5.03 0 0 1-1.253-1.008l-.09-.104c-.37-.42-.717-.93-1.034-1.516l-.097-.18C6.4 8.82 5.916 4.36 5.77 1.993h13.462l-.02.32-.027.375-.106 1.15-.024.228c-.27 2.418-.84 5.5-2.04 7.82l-.106.196a8.88 8.88 0 0 1-.756 1.176zm4.047-.6c-1.212.73-2.425.882-3.23.882a5.66 5.66 0 0 1-.092-.001l.144-.204.017-.025.117-.177.03-.046.126-.203.02-.032.124-.21c.693-.014 1.665-.16 2.563-.736.92-.59 1.688-1.413 2.284-2.446.624-1.08 1.042-2.367 1.242-3.823.117-.85-.02-1.503-.402-1.943-.353-.405-.894-.6-1.608-.6-.558 0-1.152.127-1.657.275l.06-.728a5.86 5.86 0 0 1 2.007-.398c1.538 0 2.295.836 2.315 2.557.057 4.865-2.82 7.124-4.058 7.87z"/><path d="M9.392 12.023l-.62.4a6.61 6.61 0 0 0 .676.868l.543-.506c-.2-.224-.4-.483-.6-.77zM7.8 7.906l-.724.165c.356 1.56.83 2.87 1.413 3.894l.646-.367c-.546-.96-.994-2.203-1.334-3.693zm13.863 8.38v-.743h-.627v-.627h-.743v.627h-.627v.743h.627v.627h.743v-.627zM5.507 20.14l-.001-.743H4.98v-.526l-.743.001.001.526h-.526l.001.743h.526v.526l.743-.001-.001-.526zm-3.122-6.07h1v1h-1zm4.502 2.197h1v1h-1zm11.29 2.233h1v1h-1z"/></svg>