<svg  width="23" height="25" ><g fill="#00ced1" fill-rule="nonzero"><path d="M7.95 6.788l-.412.15A1.94 1.94 0 0 0 6.3 8.39l-.14.733a1.23 1.23 0 0 0 1.214 1.469h3.573a1.24 1.24 0 0 0 .95-.443c.237-.28.333-.65.27-1l-.13-.73a1.94 1.94 0 0 0-1.243-1.476l-.437-.158V6.13c0-.018-.002-.036-.004-.053a1.75 1.75 0 0 0 .501-1.22v-.96a1.7 1.7 0 0 0-1.699-1.699 1.7 1.7 0 0 0-1.699 1.699v1c0 .465.192.9.5 1.2-.002.014-.003.03-.003.044v.657zm3.38 1.747l.13.73a.52.52 0 0 1-.514.614H7.374a.52.52 0 0 1-.513-.621L7 8.524c.08-.42.38-.77.78-.916l.27-.098.02.02a1.63 1.63 0 0 0 1.08.403 1.64 1.64 0 0 0 1.079-.403l.03-.03.285.103a1.22 1.22 0 0 1 .784.93zM8.167 3.898c0-.543.442-.985.985-.985.458 0 .843.315.953.74l-.14.063c-.44.176-.794.152-.895.08-.16-.113-.384-.074-.497.087s-.074.384.087.497c.174.122.4.183.68.183a2.35 2.35 0 0 0 .797-.152v.444c0 .273-.113.54-.3.733a1 1 0 0 1-.308.206l-.023.01a.92.92 0 0 1-.364.065.99.99 0 0 1-.965-.985v-1zm.952 2.688h.033c.168 0 .332-.025.488-.073v.57a.93.93 0 0 1-.975 0v-.57c.144.044.297.07.454.072h0zM3.535 16.704h11.12c.197 0 .357-.16.357-.357a.35.35 0 0 0-.358-.347H3.535c-.197 0-.357.16-.357.357s.16.357.357.357z"/><use xlink:href="#B"/><use xlink:href="#B" y="1.924"/><use xlink:href="#B" y="3.85"/><path d="M3.178 12.497c0 .197.16.357.357.357h11.12c.197 0 .357-.16.357-.357s-.16-.357-.357-.357H3.535c-.197 0-.357.16-.357.357z"/><use xlink:href="#B" y="-3.85"/><use xlink:href="#C"/><use xlink:href="#C" y="-3.851"/><use xlink:href="#C" y="-1.926"/><use xlink:href="#C" y="1.924"/><use xlink:href="#C" y="3.85"/><use xlink:href="#C" y="5.774"/><path d="M22.45 5.623c-.144-.182-.28-.355-.346-.513-.07-.17-.1-.398-.13-.637-.052-.42-.1-.896-.443-1.228s-.808-.4-1.228-.443c-.24-.03-.466-.058-.638-.13-.16-.066-.33-.202-.513-.346-.25-.198-.527-.416-.853-.515v-.108C18.3.764 17.537 0 16.597 0H1.724C.784 0 .02.764.02 1.704v1.378c0 .197.16.357.357.357s.357-.16.357-.357V1.704a.99.99 0 0 1 .99-.99h14.873a.99.99 0 0 1 .99.99v.108c-.326.1-.602.316-.853.515-.182.144-.355.28-.513.346-.17.07-.398.1-.638.13-.42.052-.896.1-1.228.443s-.4.808-.443 1.228c-.03.24-.058.466-.13.637-.066.16-.202.33-.346.513-.267.338-.57.72-.57 1.2s.302.872.57 1.2c.144.182.28.355.346.513.07.17.1.398.13.637.052.42.1.896.443 1.228s.808.4 1.228.443l.36.052v5.397c0 .212.118.4.308.493s.412.07.578-.06l.76-.594v6.52a.99.99 0 0 1-.99.99H1.724a.99.99 0 0 1-.99-.99v-18c0-.197-.16-.357-.357-.357s-.357.16-.357.357V22.67c0 .94.764 1.704 1.704 1.704h14.873c.94 0 1.704-.764 1.704-1.704v-6.52l.76.594c.1.078.218.117.337.117a.55.55 0 0 0 .241-.056c.2-.093.308-.28.308-.493v-3.984c0-.197-.16-.357-.357-.357s-.357.16-.357.357v3.644l-.95-.743a.55.55 0 0 0-.678-.001l-.95.744v-4.695l.078.062c.338.267.72.57 1.2.57s.872-.302 1.2-.57c.182-.144.355-.28.513-.346.17-.07.398-.1.638-.13.42-.052.896-.1 1.228-.443s.4-.808.443-1.228c.03-.24.058-.466.13-.637.066-.16.202-.33.346-.513.267-.338.57-.72.57-1.2s-.302-.872-.57-1.2h0zM21.9 7.6c-.168.213-.342.432-.445.682-.108.26-.144.547-.178.823-.04.335-.08.652-.24.8s-.475.198-.8.24c-.277.034-.562.07-.823.178-.25.104-.47.277-.682.445-.27.214-.526.415-.767.415s-.497-.202-.767-.415c-.213-.168-.432-.342-.682-.445l-.1-.034c-.236-.082-.488-.114-.734-.144-.335-.04-.652-.08-.8-.24s-.198-.475-.24-.8c-.034-.277-.07-.562-.178-.823-.104-.25-.277-.47-.445-.682-.214-.27-.415-.526-.415-.767s.202-.497.415-.767c.168-.213.342-.432.445-.682.108-.26.144-.547.178-.823.04-.335.08-.652.24-.8s.475-.198.8-.24c.277-.034.562-.07.823-.178.25-.104.47-.277.682-.445.27-.213.525-.414.766-.415s.5.202.77.415c.213.168.432.342.682.445.26.108.547.144.823.178.335.04.652.08.8.24s.198.475.24.8c.034.277.07.562.178.823.104.25.277.47.445.682.214.27.415.526.415.767s-.202.497-.415.767zm-1.653-1.902l-1.215-.344-.702-1.05a.45.45 0 0 0-.749 0l-.702 1.05-1.215.344a.45.45 0 0 0-.232.713l.78.992-.048 1.26a.45.45 0 0 0 .606.441l1.185-.436 1.185.436a.45.45 0 0 0 .606-.441L19.688 7.4l.78-.992a.45.45 0 0 0-.232-.713zm-1.17 1.34a.45.45 0 0 0-.096.296l.037.966-.907-.334a.45.45 0 0 0-.311 0l-.907.334.037-.966a.45.45 0 0 0-.096-.296l-.598-.76.93-.263a.45.45 0 0 0 .252-.183l.538-.803.538.803a.45.45 0 0 0 .252.183l.93.263-.598.76z"/></g><defs ><path id="B" d="M3.535 18.63h11.12c.197 0 .357-.16.357-.357s-.16-.357-.357-.357H3.535c-.197 0-.357.16-.357.357s.16.357.357.357z"/><path id="C" d="M2.217 16.706a.36.36 0 0 0 .358-.358.36.36 0 0 0-.358-.358.36.36 0 0 0-.358.358.36.36 0 0 0 .358.358z"/></defs></svg>