<svg  width="28" height="28" fill="#00ced1" fill-rule="nonzero" ><path d="M25.616 14.47c-.084-.44-.47-.76-.918-.76h-.903l-.066-.398a.94.94 0 0 0-.781-.775l-.267-.036a2.85 2.85 0 0 0-.355-2.085 1.92 1.92 0 0 0-.103-1.6c-.267-.493-.736-.843-1.283-.96a3.98 3.98 0 0 0-3.887-3.247c-.047 0-.088.006-.133.007a1.9 1.9 0 0 0-2.909-.362 3.21 3.21 0 0 0-1.746-.519c-1 .004-1.94.468-2.552 1.257A2.33 2.33 0 0 0 6.737 7.09a1.93 1.93 0 0 0-1.18 1.773 1.9 1.9 0 0 0 .047.399c-.63.952-.796 2.138-.448 3.226l-.374.05a.94.94 0 0 0-.787.774l-.066.4h-.905c-.447 0-.832.318-.917.757L.06 24.98c-.08.412.028.837.296 1.16s.665.5 1.084.5h9.75c.387.64 1.563.935 2.672.935 1.097 0 2.262-.3 2.66-.935h9.76a1.4 1.4 0 0 0 1.084-.51c.267-.324.376-.75.296-1.16l-2.046-10.5zM6.972 9.7c-.38-.228-.56-.68-.443-1.108s.505-.724.948-.725a.97.97 0 0 1 .785.396.47.47 0 0 0 .43.186.46.46 0 0 0 .375-.28.47.47 0 0 0-.054-.464 1.89 1.89 0 0 0-1.326-.748 1.42 1.42 0 0 1 1.386-1.125c.057.003.114.01.17.02a3.07 3.07 0 0 0-.098.293.47.47 0 0 0 .338.56c.246.064.498-.08.567-.326.053-.205.135-.403.243-.585a2.31 2.31 0 0 1 1.972-1.125 2.27 2.27 0 0 1 1.238.374 1.9 1.9 0 0 0-.11.613.47.47 0 0 0 .468.468.47.47 0 0 0 .468-.468c0-.543.44-.983.983-.983s.983.44.983.983a.47.47 0 0 0 .468.468.47.47 0 0 0 .468-.468c0-.036-.01-.07-.01-.106 1.34.083 2.464 1.034 2.77 2.34a1.89 1.89 0 0 0-.605.302c-.134.1-.204.264-.184.43a.47.47 0 0 0 .28.374c.153.066.33.044.464-.056.374-.277.9-.255 1.238.053a1 1 0 0 1 .207 1.222.92.92 0 0 1-.443.4c-.195.095-.3.3-.252.523s.235.363.452.365a.46.46 0 0 0 .198-.044 1.92 1.92 0 0 0 .349-.218c.242.687.1 1.45-.396 1.994l-.01.012a2.02 2.02 0 0 1-2.384.438 2.14 2.14 0 0 1-.226-.14 1.59 1.59 0 0 0 .123-1.646.47.47 0 0 0-.809-.046.47.47 0 0 0-.027.467c.154.3.058.684-.225.88-.166.1-.372.146-.565.096s-.357-.18-.45-.355a.47.47 0 0 0-.4-.258c-.176-.01-.326.07-.418.2s-.103.317-.028.467a1.62 1.62 0 0 0 1.457.901 1.6 1.6 0 0 0 .587-.115c.167.146.35.272.548.374a2.88 2.88 0 0 0 2.159.2 2.98 2.98 0 0 1-1.925 1.18c-.24.04-.4.256-.4.498a.46.46 0 0 0 .464.43c.025 0 .05-.002.074-.006a3.84 3.84 0 0 0 .829-.242 4.18 4.18 0 0 1 .349.803.48.48 0 0 1 .024.151c0 .202-.12.385-.307.464a.53.53 0 0 1-.604-.162c-.362-.425-.836-.74-1.368-.9-1-.338-1.4-.64-1.566-.97a4.49 4.49 0 0 0 .717-.15.47.47 0 0 0 .318-.343c.038-.163-.015-.333-.137-.447s-.296-.154-.456-.104c-.262.08-.533.13-.807.148a3.47 3.47 0 0 1-1.549-.234c-.185-.072-.395-.02-.524.13a2 2 0 0 1-3.229-2.341.47.47 0 0 0-.395-.71.47.47 0 0 0-.41.228 2.92 2.92 0 0 0-.267.602.7.7 0 0 1-.664-.689v-.012a.46.46 0 0 0-.138-.328c-.088-.086-.207-.135-.33-.133a.47.47 0 0 0-.468.473c.002.83.627 1.524 1.452 1.613a2.94 2.94 0 0 0 .043.468 2.86 2.86 0 0 1-3.233-3.913 1.79 1.79 0 0 0 .348.277c.22.13.505.057.637-.162a.47.47 0 0 0-.154-.64V9.7zm-2.057 3.756l.66-.1c.864 1.38 2.518 2.052 4.1 1.663a2.93 2.93 0 0 0 4.587.777 4.49 4.49 0 0 0 .976.177c.226.857.878 1.375 2.25 1.835a2.07 2.07 0 0 1 .952.627 1.49 1.49 0 0 0 1.13.531 1.42 1.42 0 0 0 .555-.113 1.44 1.44 0 0 0 .804-1.766 5.11 5.11 0 0 0-.413-.951 3.94 3.94 0 0 0 1.554-2.376 2.93 2.93 0 0 0 .269-.377l.47.064 1.688 10.152a16.05 16.05 0 0 0-10.166 0v-5.852a.47.47 0 0 0-.468-.468.47.47 0 0 0-.468.468v5.854a16.05 16.05 0 0 0-10.166-.004l1.687-10.152zm-3.84 12.078c-.088-.107-.124-.247-.098-.383l2.047-10.5h.748l-1.467 8.817a.94.94 0 0 0 1.207 1.044 15.64 15.64 0 0 1 7.722-.49l-.14 1.695H1.44a.47.47 0 0 1-.364-.172zM13.86 26.65c-1.126 0-1.772-.333-1.867-.48l.16-1.94a9.99 9.99 0 0 1 1.504.504.47.47 0 0 0 .202.047c.07 0 .14-.016.202-.047a9.96 9.96 0 0 1 1.504-.508l.16 1.943c-.095.15-.74.482-1.867.482h0zm12.786-1.107a.47.47 0 0 1-.364.172H16.63l-.14-1.698c2.576-.485 5.232-.315 7.725.494a.94.94 0 0 0 1.202-1.047L23.95 14.65h.748l2.048 10.5a.46.46 0 0 1-.1.384h0zM12.312 10.606a.47.47 0 0 0-.033.66 2.82 2.82 0 0 0 1.498.864 1.39 1.39 0 0 1-1.138.587.47.47 0 0 0-.468.468.47.47 0 0 0 .468.468 2.32 2.32 0 0 0 2.178-1.499 2.82 2.82 0 0 0 2.308-2.244c.035-.165-.022-.337-.15-.448s-.305-.145-.464-.1-.276.195-.305.36c-.092.482-.37.9-.774 1.187a1.91 1.91 0 0 1-2.461-.281.47.47 0 0 0-.66-.033h0zm-1.63-.508a.47.47 0 0 0 .468-.468c0-.322.128-.632.356-.86s.537-.356.86-.356a.47.47 0 0 0 .468-.468.47.47 0 0 0-.468-.468 2.15 2.15 0 0 0-2.15 2.15.47.47 0 0 0 .467.467h0zM14.33.935V.468A.47.47 0 0 0 13.86 0c-.26 0-.468.2-.468.468v.468a.47.47 0 0 0 .468.468.47.47 0 0 0 .468-.468zm7.203 2.42l-.468.468c-.122.117-.17.3-.127.455s.17.3.334.334.337-.006.455-.127l.468-.468c.122-.117.17-.3.127-.455s-.17-.3-.334-.334-.337.006-.455.127zM6.326 4.62c.2 0 .36-.114.432-.3a.47.47 0 0 0-.1-.51L6.2 3.352c-.117-.122-.3-.17-.455-.127s-.3.17-.334.334.006.337.127.455l.468.468c.088.088.207.137.33.137zm3.6-1.967c.06 0 .122-.012.18-.036a.47.47 0 0 0 .253-.611L9.82.7C9.76.553 9.616.44 9.45.417S9.114.463 9 .6s-.123.315-.055.47l.537 1.296c.072.175.243.3.432.288h0zM18.513.458c-.238-.1-.512.015-.6.253l-.537 1.296c-.048.115-.048.243 0 .358a.47.47 0 0 0 .253.253.5.5 0 0 0 .18.036c.2 0 .36-.114.432-.288l.537-1.296c.048-.115.048-.243 0-.358a.47.47 0 0 0-.253-.253h0zm4.85 7.762c.06 0 .122-.012.18-.036l1.296-.537a.47.47 0 0 0 .285-.37c.022-.165-.046-.33-.18-.432s-.3-.125-.464-.06l-1.296.537c-.207.085-.325.304-.28.524s.236.377.46.376zM4.18 8.184a.47.47 0 0 0 .611-.253.47.47 0 0 0-.253-.611l-1.296-.537a.47.47 0 0 0-.611.253.47.47 0 0 0 .253.611l1.296.537z"/></svg>