<svg  width="26" height="20" ><path d="M24.693 5.358L14.512.384c-.878-.44-2.37-.44-3.248 0L.848 5.358C.117 5.71 0 6.206 0 6.47s.117.73.848 1.112l.848.4v4.68c-.527.205-.907.73-.907 1.317s.38 1.112.878 1.317L.35 19.49h3.686L2.72 15.305c.527-.205.878-.73.878-1.317 0-.614-.38-1.112-.907-1.317V8.488l1.55.76v6.085c0 .088.03.176.088.263.146.176 2.867 3.89 8.426 3.89s8.28-3.745 8.397-3.89c.06-.088.088-.176.088-.263V9.278l3.452-1.697c.73-.35.848-.848.848-1.112-.03-.263-.117-.76-.848-1.112zm-4.39 9.83c-.468.585-2.984 3.394-7.548 3.394s-7.08-2.81-7.548-3.394V9.66l6.056 2.896c.44.205 1.024.322 1.61.322.614 0 1.2-.117 1.638-.35l5.793-2.838v5.5zm3.98-8.426l-3.51 1.726c-.146 0-.263.06-.322.176l-6.35 3.072c-.614.322-1.814.322-2.458 0L3.833 7.99l8.982-1.053c.263-.03.44-.263.4-.497-.03-.263-.263-.44-.497-.4L2.31 7.26l-1.053-.497C.995 6.645.936 6.5.936 6.5c0-.03.06-.146.322-.263l10.416-5.003c.322-.146.76-.234 1.2-.234.468 0 .936.088 1.23.234l10.18 4.974c.263.117.322.234.322.293 0 0-.088.146-.322.263z" fill="#00ced1" fill-rule="nonzero"/></svg>