<svg  width="29" height="30"><g fill-rule="nonzero"><g fill="#00ced1"><path d="M21.244 4.284h.405v.405a.58.58 0 0 0 .579.579.58.58 0 0 0 .579-.579v-.405h.405a.58.58 0 0 0 .579-.579.58.58 0 0 0-.579-.579h-.405V2.72a.58.58 0 0 0-.579-.579.58.58 0 0 0-.579.579v.405h-.405a.58.58 0 0 0-.579.579.58.58 0 0 0 .579.579z"/><use xlink:href="#B"/><use xlink:href="#B" x="24.388" y="0.984"/><path d="M21.633 17.225l5.797-4.193a2.46 2.46 0 0 0 .914-2.797 2.46 2.46 0 0 0-2.379-1.731H18.81l-2.2-6.774A2.46 2.46 0 0 0 14.24 0a2.46 2.46 0 0 0-2.38 1.732l-2.2 6.774H2.515a2.46 2.46 0 0 0-2.379 1.731 2.46 2.46 0 0 0 .914 2.797l5.797 4.193-2.22 6.778c-.41 1.256.2 2.36 1.06 2.903v2.152a.58.58 0 0 0 .579.579h5.367a.58.58 0 0 0 .579-.579.58.58 0 0 0-.579-.579H6.847v-1.804c0-1.748 1.422-3.17 3.17-3.17h2.194l1.502 3.3a.58.58 0 0 0 1.054 0l1.502-3.3h2.194c1.748 0 3.17 1.422 3.17 3.17v1.804h-4.788a.58.58 0 0 0-.579.579.58.58 0 0 0 .579.579h5.367a.58.58 0 0 0 .579-.579v-2.152c.862-.544 1.472-1.647 1.06-2.903l-2.22-6.778zm-10.127-.22h4a3.14 3.14 0 0 0 1.459-.358v1.3c0 1.768-1.15 3.05-2.734 3.05a2.74 2.74 0 0 1-2.734-2.734v-1.257zm6.013-3.16c0 1.105-.9 2.003-2.003 2.003h-4v-.863c0-1.105.9-2.003 2.003-2.003h4v.863zM14.24 25.17l-1.078-2.367V22a3.88 3.88 0 0 0 1.078.153 3.86 3.86 0 0 0 1.078-.152v.8L14.24 25.17zm8.384.32c-.518-1.8-2.186-3.14-4.16-3.14h-1.988v-.916c1.015-.744 1.657-2.002 1.657-3.488v-2.33c.343-.506.544-1.115.544-1.77v-1.442a.58.58 0 0 0-.579-.579h-4.59c-1.743 0-3.16 1.418-3.16 3.16v3.278a3.89 3.89 0 0 0 1.657 3.183v.904h-1.988c-1.974 0-3.642 1.33-4.16 3.14-.193-.304-.27-.694-.128-1.124l2.35-7.18a.58.58 0 0 0-.211-.649l-6.14-4.44c-.584-.422-.636-1.053-.49-1.502s.558-.93 1.278-.93h7.577a.58.58 0 0 0 .551-.401l2.32-7.175c.222-.686.805-.93 1.278-.93s1.056.244 1.278.93l2.32 7.175a.58.58 0 0 0 .551.401h7.577c.72 0 1.132.48 1.278.93s.093 1.08-.49 1.502l-6.14 4.44a.58.58 0 0 0-.211.649l2.35 7.18c.14.43.065.82-.128 1.124z"/></g><path d="M14.24 28.48c-.152 0-.302.062-.41.17s-.17.257-.17.41.062.302.17.41.257.17.41.17.302-.062.41-.17.17-.257.17-.41-.062-.302-.17-.41-.257-.17-.41-.17z" fill="#000"/></g><defs ><path id="B" d="M3.502 18.58h-.405v-.405a.58.58 0 0 0-.579-.579.58.58 0 0 0-.579.579v.405h-.405a.58.58 0 0 0-.579.579.58.58 0 0 0 .579.579h.405v.405a.58.58 0 0 0 .579.579.58.58 0 0 0 .579-.579v-.405h.405a.58.58 0 0 0 .579-.579.58.58 0 0 0-.579-.579z"/></defs></svg>