<?xml version="1.0" encoding="UTF-8"?>
<svg width="38px" height="38px" viewBox="0 0 38 38" version="1.1" xmlns="http://www.w3.org/2000/svg" xmlns:xlink="http://www.w3.org/1999/xlink">
    <!-- Generator: sketchtool 63.1 (101010) - https://sketch.com -->
    <title>8433A0EA-507B-4A0C-8E7D-DD8804E2B0C6</title>
    <desc>Created with sketchtool.</desc>
    <g id="Page-1" stroke="none" stroke-width="1" fill="none" fill-rule="evenodd" stroke-linecap="round" stroke-linejoin="round">
        <g id="Job-Seekers" transform="translate(-1397.000000, -282.000000)" stroke="#008B8B" stroke-width="3.19999981">
            <g id="phone-call-(3)" transform="translate(1399.000000, 284.000000)">
                <path d="M20.8799988,6.39999962 C24.0767817,7.02370623 26.5762918,9.52321626 27.1999984,12.7199992 M20.8799988,0 C27.5672756,0.742902741 32.8486789,6.01766273 33.599998,12.7039992 M31.9999981,25.4719985 L31.9999981,30.2719982 C32.0036554,31.1730303 31.6272749,32.0338515 30.9633227,32.6429819 C30.2993706,33.2521123 29.4093805,33.553099 28.5119983,33.471998 C23.5885328,32.9370233 18.8591975,31.2546294 14.7039991,28.5599983 C10.8381243,26.1034606 7.56053738,22.8258736 5.1039997,18.9599989 C2.39996475,14.7859255 0.71718876,10.0335907 0.191999989,5.0879997 C0.11115713,4.19339548 0.410035189,3.30600368 1.01562519,2.64259353 C1.62121518,1.97918338 2.47775064,1.60084581 3.3759998,1.59984259 L8.17599951,1.59984259 C9.78218191,1.58419165 11.1512007,2.76154781 11.3759993,4.35199974 C11.5785961,5.88810597 11.9543184,7.39636257 12.4959993,8.84799947 C12.9355752,10.0173995 12.6544234,11.3356893 11.7759993,12.2239993 L9.74399942,14.2559992 C12.021688,18.2616722 15.3383258,21.57831 19.3439988,23.8559986 L21.3759987,21.8239987 C22.2643086,20.9455746 23.5825985,20.6644228 24.7519985,21.1039987 C26.2036354,21.6456796 27.711892,22.0214019 29.2479983,22.2239987 C30.8568984,22.4509752 32.0403021,23.8476667 31.9999981,25.4719985 L31.9999981,25.4719985 Z" id="Shape"></path>
            </g>
        </g>
    </g>
</svg>